<?xml version="1.0" encoding="UTF-8"?>
<svg id="Layer_2" data-name="Layer 2" xmlns="http://www.w3.org/2000/svg" xmlns:xlink="http://www.w3.org/1999/xlink" viewBox="0 0 125.57 125.57">
  <defs>
    <style>
      .cls-1 {
        fill: url(#linear-gradient);
      }

      .cls-1, .cls-2 {
        stroke-width: 0px;
      }

      .cls-2 {
        fill: #fff;
      }
    </style>
    <linearGradient id="linear-gradient" x1="39.04" y1="62.79" x2="86.53" y2="62.79" gradientUnits="userSpaceOnUse">
      <stop offset="0" stop-color="#c022f9"/>
      <stop offset="1" stop-color="#3011ea"/>
    </linearGradient>
  </defs>
  <g id="Layer_1-2" data-name="Layer 1">
    <g>
      <circle class="cls-2" cx="62.79" cy="62.79" r="62.79"/>
      <path class="cls-1" d="M85.47,22.78c-2.82,0-5.67-.05-8.41-.1-2.7-.05-5.49-.09-8.22-.09-3.96,0-7.22.1-10.27.32-5.64.4-11.01,3.3-14.74,7.97-3.77,4.73-5.44,10.66-4.57,16.29,1.72,11.16,10.59,18.95,21.57,18.95,1.47,0,2.96-.14,4.43-.43,5.64-1.09,10.69-4.56,13.85-9.54,3.19-5.03,4.19-11.18,2.74-16.87-.52-2.05-1.42-3.95-2.37-5.96-.22-.46-.44-.93-.66-1.4h7.71v-9.13h-1.06ZM72.97,44.38c.03,3.18-1.19,6.18-3.43,8.45-2.29,2.31-5.36,3.59-8.66,3.6-6.68,0-12.15-5.36-12.2-11.95-.02-3.07,1.29-6.17,3.61-8.5,2.32-2.34,5.41-3.68,8.49-3.68h.01c6.55,0,12.13,5.54,12.19,12.09ZM85.18,84.9c1.19,1.4,1.07,3.7.45,7.44l-.21,1.28-1.21-.46c-1.41-.53-2.84-.79-4.36-.79h0c-2.96,0-5.79,1-8.16,1.98-1.46.6-2.92,1.21-4.37,1.82-4.22,1.77-8.58,3.6-12.97,5.15-2.55.9-5.5,1.41-9.27,1.61-.68.04-1.26.06-1.76.06-1.28,0-2.27-.15-2.97-.86-.92-.94-.9-2.4-.86-4.82,0-.51.04-1.02.08-1.61.02-.3.04-.62.06-.97l.07-1.28,1.24.31c1.3.32,2.59.48,3.93.48,4.22,0,8.03-1.58,12.06-3.24,1.24-.51,2.53-1.05,3.82-1.52.78-.29,1.56-.58,2.35-.88,4.91-1.84,10-3.75,15.21-4.61,1.41-.23,2.49-.34,3.37-.34h0c1.05,0,2.55.13,3.51,1.26ZM40.22,84.95c-.92-.94-.9-2.4-.86-4.82,0-.51.04-1.02.08-1.63.02-.29.04-.61.06-.96l.07-1.28,1.24.31c1.31.32,2.59.48,3.93.48,4.22,0,8.03-1.58,12.06-3.24,1.24-.51,2.53-1.05,3.82-1.52.78-.29,1.57-.58,2.36-.88,4.91-1.84,9.99-3.75,15.2-4.61,1.41-.23,2.49-.34,3.37-.34,1.05,0,2.55.13,3.51,1.26,1.19,1.4,1.07,3.7.45,7.44l-.21,1.28-1.21-.46c-1.41-.53-2.84-.79-4.36-.79-2.96,0-5.79,1-8.17,1.98-1.46.6-2.92,1.21-4.37,1.82-4.22,1.77-8.58,3.6-12.97,5.15-2.55.9-5.49,1.41-9.26,1.61-.68.04-1.26.06-1.76.06-1.28,0-2.27-.15-2.97-.86Z"/>
    </g>
  </g>
</svg>