<?xml version="1.0" encoding="UTF-8"?>
<svg id="Layer_2" data-name="Layer 2" xmlns="http://www.w3.org/2000/svg" xmlns:xlink="http://www.w3.org/1999/xlink" viewBox="0 0 125.57 125.57">
  <defs>
    <style>
      .cls-1 {
        fill: url(#linear-gradient);
      }

      .cls-1, .cls-2, .cls-3 {
        stroke-width: 0px;
      }

      .cls-4 {
        opacity: .15;
      }

      .cls-3 {
        fill: #fff;
      }
    </style>
    <linearGradient id="linear-gradient" x1="0" y1="62.79" x2="125.57" y2="62.79" gradientUnits="userSpaceOnUse">
      <stop offset="0" stop-color="#c022f9"/>
      <stop offset="1" stop-color="#3011ea"/>
    </linearGradient>
  </defs>
  <g id="Layer_1-2" data-name="Layer 1">
    <g>
      <circle class="cls-1" cx="62.79" cy="62.79" r="62.79"/>
      <g class="cls-4">
        <path class="cls-2" d="M87.47,24.78c-2.82,0-5.67-.05-8.41-.1-2.7-.05-5.49-.09-8.22-.09-3.96,0-7.22.1-10.27.32-5.64.4-11.01,3.3-14.74,7.97-3.77,4.73-5.44,10.66-4.57,16.29,1.72,11.16,10.59,18.95,21.57,18.95,1.47,0,2.96-.14,4.43-.43,5.64-1.09,10.69-4.56,13.85-9.54,3.19-5.03,4.19-11.18,2.74-16.87-.52-2.05-1.42-3.95-2.37-5.96-.22-.46-.44-.93-.66-1.4h7.71v-9.13h-1.06ZM74.97,46.38c.03,3.18-1.19,6.18-3.43,8.45-2.29,2.31-5.36,3.59-8.66,3.6-6.68,0-12.15-5.36-12.2-11.95-.02-3.07,1.29-6.17,3.61-8.5,2.32-2.34,5.41-3.68,8.49-3.68h.01c6.55,0,12.13,5.54,12.19,12.09Z"/>
        <path class="cls-2" d="M83.68,85.64h0c-.89,0-1.96.11-3.37.34-5.22.86-10.3,2.76-15.21,4.61-.78.29-1.56.59-2.35.88-1.29.48-2.57,1.01-3.82,1.52-4.03,1.67-7.84,3.24-12.06,3.24-1.34,0-2.62-.16-3.93-.48l-1.24-.31-.07,1.28c-.02.36-.04.68-.06.97-.04.6-.07,1.1-.08,1.61-.04,2.42-.06,3.88.86,4.82.7.71,1.69.86,2.97.86.5,0,1.08-.02,1.76-.06,3.77-.2,6.71-.71,9.27-1.61,4.39-1.55,8.75-3.38,12.97-5.15,1.46-.61,2.91-1.22,4.37-1.82,2.38-.98,5.21-1.98,8.16-1.98h0c1.52,0,2.95.26,4.36.79l1.21.46.21-1.28c.63-3.74.74-6.04-.45-7.44-.96-1.13-2.46-1.26-3.51-1.26Z"/>
        <path class="cls-2" d="M45.19,87.8c.5,0,1.08-.02,1.76-.06,3.77-.2,6.72-.71,9.26-1.61,4.39-1.55,8.75-3.38,12.97-5.15,1.46-.61,2.91-1.22,4.37-1.82,2.38-.98,5.21-1.98,8.17-1.98,1.52,0,2.95.26,4.36.79l1.21.46.21-1.28c.63-3.74.74-6.04-.45-7.44-.96-1.13-2.46-1.26-3.51-1.26-.89,0-1.96.11-3.37.34-5.21.86-10.29,2.76-15.2,4.61-.79.3-1.57.59-2.36.88-1.29.48-2.57,1.01-3.82,1.52-4.03,1.67-7.84,3.24-12.06,3.24-1.34,0-2.62-.16-3.93-.48l-1.24-.31-.07,1.28c-.02.35-.04.67-.06.96-.04.6-.07,1.11-.08,1.63-.04,2.42-.07,3.88.86,4.82.7.71,1.69.86,2.97.86Z"/>
      </g>
      <g>
        <path class="cls-3" d="M85.47,22.78c-2.82,0-5.67-.05-8.41-.1-2.7-.05-5.49-.09-8.22-.09-3.96,0-7.22.1-10.27.32-5.64.4-11.01,3.3-14.74,7.97-3.77,4.73-5.44,10.66-4.57,16.29,1.72,11.16,10.59,18.95,21.57,18.95,1.47,0,2.96-.14,4.43-.43,5.64-1.09,10.69-4.56,13.85-9.54,3.19-5.03,4.19-11.18,2.74-16.87-.52-2.05-1.42-3.95-2.37-5.96-.22-.46-.44-.93-.66-1.4h7.71v-9.13h-1.06ZM72.97,44.38c.03,3.18-1.19,6.18-3.43,8.45-2.29,2.31-5.36,3.59-8.66,3.6-6.68,0-12.15-5.36-12.2-11.95-.02-3.07,1.29-6.17,3.61-8.5,2.32-2.34,5.41-3.68,8.49-3.68h.01c6.55,0,12.13,5.54,12.19,12.09Z"/>
        <path class="cls-3" d="M81.68,83.64h0c-.89,0-1.96.11-3.37.34-5.22.86-10.3,2.76-15.21,4.61-.78.29-1.56.59-2.35.88-1.29.48-2.57,1.01-3.82,1.52-4.03,1.67-7.84,3.24-12.06,3.24-1.34,0-2.62-.16-3.93-.48l-1.24-.31-.07,1.28c-.02.36-.04.68-.06.97-.04.6-.07,1.1-.08,1.61-.04,2.42-.06,3.88.86,4.82.7.71,1.69.86,2.97.86.5,0,1.08-.02,1.76-.06,3.77-.2,6.71-.71,9.27-1.61,4.39-1.55,8.75-3.38,12.97-5.15,1.46-.61,2.91-1.22,4.37-1.82,2.38-.98,5.21-1.98,8.16-1.98h0c1.52,0,2.95.26,4.36.79l1.21.46.21-1.28c.63-3.74.74-6.04-.45-7.44-.96-1.13-2.46-1.26-3.51-1.26Z"/>
        <path class="cls-3" d="M43.19,85.8c.5,0,1.08-.02,1.76-.06,3.77-.2,6.72-.71,9.26-1.61,4.39-1.55,8.75-3.38,12.97-5.15,1.46-.61,2.91-1.22,4.37-1.82,2.38-.98,5.21-1.98,8.17-1.98,1.52,0,2.95.26,4.36.79l1.21.46.21-1.28c.63-3.74.74-6.04-.45-7.44-.96-1.13-2.46-1.26-3.51-1.26-.89,0-1.96.11-3.37.34-5.21.86-10.29,2.76-15.2,4.61-.79.3-1.57.59-2.36.88-1.29.48-2.57,1.01-3.82,1.52-4.03,1.67-7.84,3.24-12.06,3.24-1.34,0-2.62-.16-3.93-.48l-1.24-.31-.07,1.28c-.02.35-.04.67-.06.96-.04.6-.07,1.11-.08,1.63-.04,2.42-.07,3.88.86,4.82.7.71,1.69.86,2.97.86Z"/>
      </g>
    </g>
  </g>
</svg>