<?xml version="1.0" encoding="UTF-8"?>
<svg id="Layer_2" data-name="Layer 2" xmlns="http://www.w3.org/2000/svg" xmlns:xlink="http://www.w3.org/1999/xlink" viewBox="0 0 532.71 125.57">
  <defs>
    <style>
      .cls-1 {
        fill: url(#linear-gradient);
      }

      .cls-1, .cls-2, .cls-3 {
        stroke-width: 0px;
      }

      .cls-3 {
        fill: #fff;
      }
    </style>
    <linearGradient id="linear-gradient" x1="0" y1="62.79" x2="125.57" y2="62.79" gradientUnits="userSpaceOnUse">
      <stop offset="0" stop-color="#c022f9"/>
      <stop offset="1" stop-color="#3011ea"/>
    </linearGradient>
  </defs>
  <g id="Layer_1-2" data-name="Layer 1">
    <g>
      <g>
        <circle class="cls-1" cx="62.79" cy="62.79" r="62.79"/>
        <g>
          <path class="cls-3" d="M85.47,22.78c-2.82,0-5.67-.05-8.41-.1-2.7-.05-5.49-.09-8.22-.09-3.96,0-7.22.1-10.27.32-5.64.4-11.01,3.3-14.74,7.97-3.77,4.73-5.44,10.66-4.57,16.29,1.72,11.16,10.59,18.95,21.57,18.95,1.47,0,2.96-.14,4.43-.43,5.64-1.09,10.69-4.56,13.85-9.54,3.19-5.03,4.19-11.18,2.74-16.87-.52-2.05-1.42-3.95-2.37-5.96-.22-.46-.44-.93-.66-1.4h7.71v-9.13h-1.06ZM72.97,44.38c.03,3.18-1.19,6.18-3.43,8.45-2.29,2.31-5.36,3.59-8.66,3.6-6.68,0-12.15-5.36-12.2-11.95-.02-3.07,1.29-6.17,3.61-8.5,2.32-2.34,5.41-3.68,8.49-3.68h.01c6.55,0,12.13,5.54,12.19,12.09Z"/>
          <path class="cls-3" d="M81.68,83.64h0c-.89,0-1.96.11-3.37.34-5.22.86-10.3,2.76-15.21,4.61-.78.29-1.56.59-2.35.88-1.29.48-2.57,1.01-3.82,1.52-4.03,1.67-7.84,3.24-12.06,3.24-1.34,0-2.62-.16-3.93-.48l-1.24-.31-.07,1.28c-.02.36-.04.68-.06.97-.04.6-.07,1.1-.08,1.61-.04,2.42-.06,3.88.86,4.82.7.71,1.69.86,2.97.86.5,0,1.08-.02,1.76-.06,3.77-.2,6.71-.71,9.27-1.61,4.39-1.55,8.75-3.38,12.97-5.15,1.46-.61,2.91-1.22,4.37-1.82,2.38-.98,5.21-1.98,8.16-1.98h0c1.52,0,2.95.26,4.36.79l1.21.46.21-1.28c.63-3.74.74-6.04-.45-7.44-.96-1.13-2.46-1.26-3.51-1.26Z"/>
          <path class="cls-3" d="M43.19,85.8c.5,0,1.08-.02,1.76-.06,3.77-.2,6.72-.71,9.26-1.61,4.39-1.55,8.75-3.38,12.97-5.15,1.46-.61,2.91-1.22,4.37-1.82,2.38-.98,5.21-1.98,8.17-1.98,1.52,0,2.95.26,4.36.79l1.21.46.21-1.28c.63-3.74.74-6.04-.45-7.44-.96-1.13-2.46-1.26-3.51-1.26-.89,0-1.96.11-3.37.34-5.21.86-10.29,2.76-15.2,4.61-.79.3-1.57.59-2.36.88-1.29.48-2.57,1.01-3.82,1.52-4.03,1.67-7.84,3.24-12.06,3.24-1.34,0-2.62-.16-3.93-.48l-1.24-.31-.07,1.28c-.02.35-.04.67-.06.96-.04.6-.07,1.11-.08,1.63-.04,2.42-.07,3.88.86,4.82.7.71,1.69.86,2.97.86Z"/>
        </g>
      </g>
      <g>
        <path class="cls-2" d="M192.62,72.95h-16.71v-11.19c.69-.05,1.3-.14,1.91-.14,9.57,0,19.14,0,28.68,0,3.04,20.65-9.32,36.67-30.05,37.35-13.2.43-23.79-4.31-30.48-15.84-8.66-14.92-6.83-38.5,10.04-49.97,15.37-10.45,38.27-5.83,48.19,9.86.77,1.22,1.36,2.55,2.19,4.12-4.7,1.17-9.14,2.28-13.54,3.38-6.08-11.69-20.72-12.62-29.16-6.41-5.67,4.18-7.96,10.28-8.47,16.95-.55,7.13,1.19,13.81,5.94,19.39,8.5,9.98,26.6,7.03,30.88-4.98.24-.68.33-1.4.59-2.51Z"/>
        <path class="cls-2" d="M400.04,77.01c2.18-13.85-7.07-27.35-19.89-29.28-14.71-2.21-26.63,7.13-28.92,22.68-1.96,13.25,7.99,26.72,21.04,28.48,13.84,1.86,25.22-4.72,26.76-15.57-3.23-.27-6.45-.65-9.69-.73-.92-.03-2.2.57-2.74,1.31-2.21,3.06-5.24,4.44-8.85,4.81-7.13.71-13.38-5.13-12.3-11.7h34.59ZM376.07,57.83c5.66.02,9.91,3.99,10.54,10.11h-21.15c.26-6.46,6.42-10.12,10.61-10.11Z"/>
        <path class="cls-2" d="M289.51,64.02c-.24-6.47-3.58-11.67-9.72-14.38-7.37-3.26-14.92-3.24-22.26.13-6.38,2.91-9.85,8.8-9.43,15.45h11.56c1.71-7.13,7.31-9.99,13.28-6.87,2.33,1.22,3.46,3.07,3.3,5.59-.18,2.77-2.37,3.52-4.61,3.97-4.62.92-9.29,1.61-13.88,2.64-3.86.88-7.32,2.6-9.55,6.13-6.14,9.67.32,21.52,12.15,22.25,6.22.39,12.15-.19,16.61-5.97.15,1.99.25,3.3.35,4.59h12.31c0-11.28.3-22.42-.11-33.53ZM273.33,86.65c-2.71,2.79-6.01,3.43-9.55,2.59-2.79-.66-4.39-2.56-4.49-5.68-.09-3.09,1.49-4.81,4.19-5.43,4.27-.99,8.6-1.68,13.31-2.58-.11,4.29-.5,8.05-3.46,11.1Z"/>
        <path class="cls-2" d="M507.24,47.29c-13.85-.04-25.06,10.82-25.26,24.47-.23,15.68,9.76,26.66,23.94,27.27,15.42.67,27.01-10.56,26.78-25.6.19-15.02-10.59-26.09-25.46-26.14ZM518.96,78.3c-1.97,6.33-7.15,9.95-13.22,9.23-5.4-.65-9.91-5.71-10.46-11.77-.08-.84-.01-1.68-.01-2.52-.2-.06-.41-.11-.61-.17.81-2.66,1.29-5.49,2.52-7.95,2.01-4.05,5.49-6.08,10.17-6.12,4.67-.05,8.11,1.85,10.28,5.92,2.27,4.25,2.77,8.73,1.33,13.38Z"/>
        <path class="cls-2" d="M442.88,62.75h-11.11c-2.13-4.94-5.27-6.67-10.13-5.61-2.38.52-4.01,1.79-4.22,4.38-.21,2.51,1.13,4.02,3.43,4.59,3.76.92,7.58,1.59,11.34,2.54,11.26,2.86,15.9,14.2,9.33,22.87-3.22,4.24-7.75,6.52-12.9,7.17-7.4.95-14.52.28-20.29-5.3-2.98-2.88-4.6-6.43-5.43-10.79h11.66c2.8,5.84,7,7.99,12.41,6.33,2.78-.85,4.81-2.45,4.84-5.47.03-3.21-2.68-4.03-5.14-4.66-3.25-.82-6.61-1.2-9.84-2.1-5.9-1.64-11.07-4.28-12.25-11.15-.87-5.06.78-9.31,4.42-12.84,7.66-7.44,22.96-7.19,30.17.53,2.44,2.61,3.85,5.69,3.73,9.5Z"/>
        <path class="cls-2" d="M315.16,97.59h-13.1v-38.25h-8.09v-10.48h7.71c.14-7.38-.71-15.18,6.87-19.69,5.1-3.03,10.68-3.37,16.57-2.14v9.6c-3.01,1.07-6.68,1.37-8.6,3.36-1.69,1.76-1.43,5.4-2.16,8.8h10.79v10.25h-9.99v38.54Z"/>
        <path class="cls-2" d="M467.89,48.83h11.3v10.27h-11.09c0,8.12-.13,15.88.07,23.62.06,2.43,1.89,3.94,4.4,4.18,1.97.19,3.95.2,6.09.29v11.4c-4.91-.35-9.77-.23-14.42-1.15-5.54-1.1-8.76-5.92-8.8-11.93-.05-8.62-.01-17.25-.01-26.2h-8.74v-10.55h8.73v-13.24h12.47v13.3Z"/>
        <path class="cls-2" d="M214.07,48.95h12.35v7.05c4.01-6.18,9.3-9.11,16.8-8.1v13.68c-1.45,0-2.89-.03-4.33,0-7.32.19-11.67,4.56-11.75,11.93-.08,7.37-.03,14.74-.04,22.11,0,.61-.06,1.22-.11,1.94h-12.93v-48.61Z"/>
        <path class="cls-2" d="M345.35,97.62h-12.45v-48.65h12.45v48.65Z"/>
        <path class="cls-2" d="M339.24,26.85c4.45.07,8.15,3.8,7.98,8.06-.17,4.13-3.92,7.66-8.14,7.66-4.4,0-8.17-3.72-8.11-7.99.06-4.39,3.7-7.79,8.27-7.73Z"/>
      </g>
    </g>
  </g>
</svg>